<svg xmlns="http://www.w3.org/2000/svg" viewBox="40 180 250 180">
  <style>
    .st25 {
      fill: #00C0F3;
    }

    .st10 {
      fill: #FFFFFF;
      stroke: #000000;
      stroke-width: 2.8;
    }

    .st11 {
      fill: #E5A812;
      stroke: #000000;
      stroke-width: 2.8;
    }

    .st12 {
      fill: #FDB913;
      stroke: #000000;
      stroke-width: 2.8;
    }

    .st23 {
      fill: #F7941E;
      stroke: #000000;
      stroke-width: 2.8;
    }

    .st26 {
      fill: #D71920;
      stroke: #000000;
      stroke-width: 2.8;
    }
  </style>
  <polygon points="48.6,238.4 47.2,249.7 62.8,250.8 50.3,259 56.2,263.9 68.5,251.2 68.5,246.7" />
  <path class="st25"
    d="M130.9,197c-2.2-8.5-8.7-19-15.9-18.4-3.5.3-5,2.7-5.1,5.6,0,0,0,0,0,0-6-2.5-15.7-3.4-15.7,3.4,0,2.6,1.7,4.8,4,6.4-19.5,6.1-33.8,25.6-33.8,48.6,0,30.7,20.9,49.2,46.6,49.2s46.6-18.5,46.6-49.2c0-20-10.9-37.4-26.7-45.6z" />
  <circle class="st10" cx="108" cy="224.4" r="14.1" />
  <circle cx="114.9" cy="223.3" r="3.2" />
  <path class="st23" d="M94,226.4c5.5,3.4,18.9,6.5,28.1,2.2,0,0-5.6,15.5-17.2,16-11.6.5-14.8-12.8-10.9-18.2z" />
  <circle class="st10" cx="137.7" cy="224.4" r="14.1" />
  <circle cx="142.1" cy="223.3" r="3.2" />
  <path class="st23" d="M151.8,226.4c-5.5,3.4-18.9,6.5-28.1,2.2,0,0,5.6,15.5,17.2,16,11.5.5,14.7-12.8,10.9-18.2z" />
  <path class="st11" d="M99.5,245.8s3.9,10.6,7.4,13.6c8,6.8,30.4,11.6,35.3,8.5,4.9-3.1-6.3-23.9-6.3-23.9l-36.4,1.8z" />
  <path class="st26" d="M130.6,244c5.2,7.1,9.4,18.1,8.3,19.9-1.8,3.1-29.7-10.4-31.7-19.9-2.2-6,22.8,0,22.8,0z" />
  <path class="st12"
    d="M98.3,245.7s16.1-17.3,25.5-17.3c9.5,0,39.3,19.6,39.3,19.6s-31.5-1.4-39.5-1.7c-8-.3-25.3-.6-25.3-.6z" />
</svg>