<svg xmlns="http://www.w3.org/2000/svg" viewBox="280 400 300 300">
  <style>
    .st15 {
      fill: #FFFFFF;
    }

    .st16 {
      fill: #FFF2BE;
    }

    .st17 {
      fill: #FFF2BE;
      stroke: #000000;
      stroke-width: 2.8;
    }

    .st11 {
      fill: #E5A812;
      stroke: #000000;
      stroke-width: 2.8;
    }

    .st12 {
      fill: #FDB913;
      stroke: #000000;
      stroke-width: 2.8;
    }
  </style>
  <path
    d="M287.5,552.7l-10.9,5.2s4.5,10.3,15.8,16.2l-25.5-6.5-4.8,16.9,31.9-2.3-17.4,10.3,7.5,8.9,19.1-17.5.3-11c-1.4-1.1-11.8-8-16.8-20.2z" />
  <path
    d="M405.8,479.7c2.7-15.6,4.9-49.3,4.9-49.3h-18.4s2.1,17.7,2.8,30.9l-13.8-41.9-18.8,8.5,16.3,35.5-19.9-23.1-12.7,18.4s19.8,12.4,28.3,20.9h31.3z" />
  <path class="st15"
    d="M481,583.5c0,57.9-39.2,84.9-91,84.9s-91-27-91-84.9c0-57.9,57.1-110.4,93.8-110.4,36.8,0,88.2,52.5,88.2,110.4z" />
  <ellipse class="st16" cx="444.1" cy="554.8" rx="21.5" ry="25.7" />
  <path class="st15"
    d="M452.8,521.1c0-7.3-6.8-13.2-15.1-13.2-8.4,0-15.1,5.9-15.1,13.2s6.8,13.2,15.1,13.2c2.2,0,4.3-.4,6.2-1.2.7,1.4,2.1,2.4,3.8,2.4,2.3,0,4.2-1.9,4.2-4.2,0-1.2-.6-2.3-1.4-3.1,1.4-1.9,2.3-4.4,2.3-7z" />
  <circle cx="440.6" cy="523" r="4.2" />
  <ellipse class="st16" cx="341" cy="558.8" rx="21.5" ry="25.7" />
  <path class="st15"
    d="M334.6,523c0-7.3,6.8-13.2,15.1-13.2,8.4,0,15.1,5.9,15.1,13.2s-6.8,13.2-15.1,13.2c-2.2,0-4.3-.4-6.2-1.2-.7,1.4-2.1,2.4-3.8,2.4-2.3,0-4.2-1.9-4.2-4.2,0-1.2.6-2.3,1.4-3.1-1.4-1.9-2.3-4.4-2.3-7z" />
  <circle cx="352.5" cy="524.9" r="4.2" />
  <path class="st17"
    d="M325.7,648.1c16.2,13.7,38.7,20.3,64.3,20.3,29.5,0,54.8-8.8,71.2-26.9-14.6-14.5-33.7-26.2-64.4-26.2-30.8,0-53.1,14-71.1,32.8z" />
  <polygon points="418.4,506 420.5,513.8 464.2,509.9 459,498.2" />
  <polygon points="369,507.9 366.9,515.7 323.2,511.8 328.4,500.2" />
  <path class="st12" d="M393.7,509c13.4,0,44.1,15.1,44.1,60.2,0,45.2-73.5,35.2-73.5,7.8,0-27.4,18.1-68,29.4-68z" />
  <path class="st11"
    d="M366.5,593.2c-6.1-9.2,20.8-30.6,40.2-31.1,19.4-.4,39.3,0,39.3,0s.4,32-24.2,40.9c-25.8,9.6-49,0-55.3-9.8z" />
</svg>