<svg xmlns="http://www.w3.org/2000/svg" viewBox="500 150 300 250">
  <style>.st8{fill:#D71920;}.st9{fill:#FCD3C1;stroke:#000000;stroke-width:2.8;}.st10{fill:#FFFFFF;stroke:#000000;stroke-width:2.8;}.st11{fill:#E5A812;stroke:#000000;stroke-width:2.8;}.st12{fill:#FDB913;stroke:#000000;stroke-width:2.8;}</style>
  <path d="M544.5,219.3l-11.2,4.4s3.7,10.6,14.6,17.3l-25-8.3-6,16.5h31.9l-18.1,9,6.9,9.5,20.3-16.1-2.4-5.7v-1.4l.3.1,3.2-4c-1.6-1.1-11.4-8.8-14.5-21.3z"/>
  <path class="st8" d="M649.2,177.7c1.2-9.3-2.9-21.6-16.7-29.2-11-6-26.5-2.8-24.2,10.4.2,1.3.7,2.4,1.2,3.4-10.8-3-30.6-1.3-30.6,7.3,0,6.9,9.4,10.4,17.5,12.2-25.1,12.7-42.4,39.8-42.4,69.2,0,40.5,33,59.7,73.7,59.7s73.7-19.2,73.7-59.7c0-33.2-21.9-63.3-52.1-73.3z"/>
  <path class="st9" d="M627.6,310.5c20.7,0,39.4-5,52.8-15.2-8.3-11.4-22.4-23.5-45.6-25.1-29.4-2-47.9,10.8-57.9,26.8,13.3,9.1,31.1,13.5,50.7,13.5z"/>
  <circle class="st10" cx="672.6" cy="243.3" r="16.1"/>
  <circle class="st10" cx="642.5" cy="243.3" r="16.1"/>
  <circle cx="647.3" cy="243.5" r="4.4"/>
  <circle cx="668.2" cy="243.5" r="4.4"/>
  <path class="st11" d="M677.7,272.9c-.3,5.5-11.6,19.5-21.2,19.3-9.7-.2-24-16.6-20.7-24.8,3.3-8.3,41.9,5.5,41.9,5.5z"/>
  <path class="st12" d="M658.7,249.1c6.3,0,28,15,30.1,24.7.6,3-28.8,3.8-37.1,3-13.2-1.3-16-9.4-16-9.4s1.7-18.3,9.4-18.3z"/>
  <polygon points="657.3,228.9 694.5,216.4 699.3,228.1 657.3,237.5 614,226.1 619.4,214.6"/>
</svg>
