<svg xmlns="http://www.w3.org/2000/svg" viewBox="250 100 350 250">
  <style>
    .st24 {
      fill: #FFEA00;
    }

    .st10 {
      fill: #FFFFFF;
      stroke: #000000;
      stroke-width: 2.8;
    }

    .st11 {
      fill: #E5A812;
      stroke: #000000;
      stroke-width: 2.8;
    }

    .st12 {
      fill: #FDB913;
      stroke: #000000;
      stroke-width: 2.8;
    }

    .st23 {
      fill: #F7941E;
      stroke: #000000;
      stroke-width: 2.8;
    }
  </style>
  <path
    d="M397.7,162.8c9.3-7,12.7-30.4,1.5-40.2,1.1,8.1-3.6,13.1-3.6,13.1-14.5-20.7-43.8-21.8-54.2-13.1,18.2,1.4,26.5,9.7,31.3,17.6-23.7-4.2-31.3,9.3-31.3,9.3,16.2-4.2,28.8,1.4,28.8,1.4-11.7,4.5-12,12-12,12s17.6-10.6,22.3,4.7c4.8,15.3,17.2-4.8,17.2-4.8z" />
  <path
    d="M333,238.8c-7.5-1.4-15.9-4.5-11.2-22.1-9.5,3.6-13.7,20.1-10.6,24-13.1-7.5-18.2-19.5-17.3-28.8-8.1,10.3-4.5,30.4,10.3,37.1-5.6,7.5-12.8,10.3-12.8,10.3s15.4,6.1,30.2-1.7c14.8-7.6,11.4-18.8,11.4-18.8z" />
  <path class="st24"
    d="M390.8,157.1c20.1-1.2,107.7,106.5,96.6,133.7-10.9,26.7-162.5,25.2-178.3,2.8-15.4-21.8,64-134.5,81.7-135.5z" />
  <path class="st10" d="M485,294.1c-54.4-21-107.4-.9-132.4,13.7,47.4,6.1,117.4,2.2,132.4-13.7z" />
  <circle class="st10" cx="453.4" cy="255.5" r="12.6" />
  <circle cx="459.4" cy="254.3" r="3.5" />
  <circle class="st10" cx="401" cy="255.5" r="14.4" />
  <circle cx="408.8" cy="254.3" r="3.5" />
  <path class="st11" d="M407,274.8s15.4,14.8,26,14.8,25.1-15,29.9-16.6c4.7-1.6-32.7-7.9-32.7-7.9l-23.2,9.7z" />
  <path class="st12" d="M407,274.8c0-6.7,16.8-19.3,22.9-19.3,6.1,0,37.4,10.6,46.6,19.3,9.1,0-42.3-8.1-60.5,0z" />
  <polygon class="st23" points="435.2,250.8 433,244.4 483,230.7 488.3,241.9" />
  <polygon class="st23" points="420.7,250.8 422.5,244.2 370.7,224 362.1,237.4" />
</svg>