<svg version="1.1" xmlns="http://www.w3.org/2000/svg" xmlns:xlink="http://www.w3.org/1999/xlink" width="139.66207" height="97.0743" viewBox="0,0,139.66207,97.0743"><g transform="translate(-172.31748,-136.99351)"><g data-paper-data="{&quot;isPaintingLayer&quot;:true}" fill-rule="evenodd" stroke="none" stroke-width="1" stroke-linecap="butt" stroke-linejoin="miter" stroke-miterlimit="10" stroke-dasharray="" stroke-dashoffset="0" style="mix-blend-mode: normal"><g><path d="M212.79478,168.92305l6.07673,-0.61798l10.40255,0.61798l5.04679,1.44196l-1.64795,-2.78087l5.04679,0.61798c3.6392,0.61798 6.00808,1.47628 7.1067,2.57488c1.8539,1.8539 3.05551,3.60481 3.60485,5.25278c0.20599,-0.20599 0.68661,-0.51499 1.44196,-0.92697c1.51063,-0.82398 3.5362,-1.68227 6.07673,-2.57488c3.22721,-1.0986 6.55734,-1.64795 9.99057,-1.64795l4.11983,0.30899l-3.70784,4.73782l1.33896,-0.41199l4.63482,-0.82398l17.30326,0.61798l-5.25278,3.29586l3.08986,0.103l7.0037,1.33887c2.95251,0.96129 6.31707,2.95259 10.09356,5.97376l4.73782,4.32583l-4.11983,1.33896l1.33896,1.02997l3.29586,4.11983c1.44196,1.99126 2.16289,5.83642 2.16289,11.53551l-0.30899,7.82768l-3.91384,-4.01684c0.89261,1.3046 0.48062,3.87947 -1.23597,7.72468c-1.0986,2.60924 -3.57048,4.60045 -7.41569,5.97373l-5.45874,1.33896l1.13297,-3.50185c-0.89261,1.57924 -3.22717,3.33017 -7.0037,5.25278c-2.60924,1.44196 -6.66034,2.19722 -12.15349,2.26588l1.23597,-2.57488c-1.23597,0.96129 -3.74219,1.92261 -7.51869,2.88387c-7.62168,1.92258 -17.57788,2.74656 -29.86873,2.47188c-6.04241,-0.20599 -12.1878,-1.06425 -18.43621,-2.57488l-7.51869,-2.26588l1.95689,2.26588l-7.62168,-0.41199c-5.69911,-0.61798 -9.92192,-1.71662 -12.66844,-3.29586c-2.26588,-1.3046 -4.18846,-2.95251 -5.76773,-4.94381l-1.54496,-2.57488l-0.30899,4.32583l-4.94381,-4.73782c-3.22721,-3.77653 -4.94381,-7.17533 -5.14979,-10.19656c-0.13735,-2.3346 0.27462,-4.39446 1.23597,-6.17972l1.54496,-1.95689l-7.93068,4.11983l1.02997,-4.53182c0.89261,-3.36449 2.09422,-6.00808 3.60485,-7.93068l5.66474,-5.04679l2.78087,-1.8539l-4.63482,0.82398l3.29586,-3.08986c3.02118,-2.3346 6.48872,-4.32583 10.40255,-5.97373c3.91384,-1.64795 7.41569,-2.47188 10.50555,-2.47188l-4.63482,-2.26588l3.08986,-0.82398l7.93068,-0.82398l5.97373,0.41199l-4.53182,-3.08986" fill="#686231"/><path d="M216.50262,170.365l5.45874,0.20599l9.68157,1.13297c3.77653,0.96129 6.76343,2.19722 8.96059,3.70784l-4.73782,-5.04679l3.19286,0.72098c2.19722,0.61798 3.87947,1.44196 5.04679,2.47188c1.71658,1.64795 2.8839,3.29586 3.50185,4.94381l1.95689,-1.02997l6.38572,-2.47184c4.94381,-1.64795 8.51433,-2.23161 10.71155,-1.75099l-5.97373,6.28272l3.50185,-1.13297l6.69471,-1.54496c3.98247,-0.54934 8.54864,-0.54934 13.69841,0l-7.51869,3.81084h5.45874l9.37258,1.13297c2.88387,0.89261 5.80205,2.47188 8.75464,4.73782c1.57924,1.0986 2.81524,2.12857 3.70784,3.08986l-6.69467,-0.30899l3.39885,2.57488c2.54056,1.99126 4.36014,3.81084 5.45874,5.45874c1.23597,1.8539 2.12857,4.70345 2.67787,8.54864l0.30899,5.35575l-5.35575,-6.79771l0.92697,4.01684c0.48062,3.15851 0.27462,6.11104 -0.61798,8.85763c-0.82398,2.54056 -2.47188,4.32583 -4.94381,5.35575l-3.50185,0.92697l2.26588,-5.25278l-2.78087,2.16289l-6.59171,4.63482c-2.12857,1.37328 -4.53182,2.30025 -7.2097,2.78087l-3.50185,0.30899l4.94381,-3.81084c-3.29586,1.37328 -7.79331,2.67787 -13.49242,3.91384c-11.39816,2.40325 -23.17403,3.22721 -35.32748,2.47188c-5.69911,-0.34334 -11.8445,-1.47628 -18.43621,-3.39885l-8.23965,-2.67787l4.73782,3.91384l-6.38572,-0.51499c-4.80645,-0.82398 -8.78897,-2.3346 -11.94749,-4.53182c-1.99126,-1.44196 -3.84519,-3.46748 -5.56174,-6.07673l-1.95689,-3.50185l-0.41199,5.56174l-2.67787,-3.39885c-1.78527,-2.74656 -2.74656,-5.28708 -2.88387,-7.62168c-0.13735,-2.19722 0.48062,-4.63482 1.8539,-7.31269l2.16289,-3.50185l-8.13665,3.19286c1.37328,-3.36449 3.19286,-6.42007 5.45874,-9.16659c1.51063,-1.71658 3.98247,-3.50185 7.41569,-5.35575l4.63482,-2.16289l-7.1067,1.13297l2.67787,-2.05989c2.60924,-1.64795 5.80205,-3.15851 9.57858,-4.53182c5.69911,-2.05989 10.36819,-2.3002 14.0074,-0.72098l-7.62168,-3.70788l3.29586,-0.51499l7.93068,-0.20599l10.09356,1.64795l-10.29956,-4.94381" fill="#e0cf3d"/><path d="M245.34139,218.9789c1.16728,0.54934 2.12857,0.13735 2.88387,-1.23597c0.75526,-1.37328 0.58362,-2.36888 -0.51499,-2.98686c-1.02997,-0.61798 -1.99126,-0.20599 -2.88387,1.23597c-0.82398,1.37328 -0.65233,2.36888 0.51499,2.98686M237.41073,211.8722c0.96129,1.0986 0.89261,2.09422 -0.20599,2.98686c-1.0986,0.89261 -2.23157,0.89261 -3.39885,0c-1.0986,-0.89261 -0.9956,-1.88823 0.30899,-2.98686c1.23597,-1.16728 2.33457,-1.16728 3.29586,0M197.96342,213.00517l3.29586,-0.103c0.68661,1.23597 0.48062,2.36888 -0.61798,3.39885l-3.29586,0.103c-1.0986,-1.02997 -0.89264,-2.16289 0.61798,-3.39885M201.67126,210.1213c-0.68661,-0.48062 -0.65226,-1.13297 0.103,-1.95689c0.68661,-0.82398 1.47624,-0.92697 2.36888,-0.30899c0.89261,0.54934 0.85829,1.20163 -0.103,1.95689c-0.89261,0.75526 -1.68227,0.85829 -2.36888,0.30899M198.16941,209.19432c-0.89261,0.89261 -1.68227,0.72098 -2.36888,-0.51499c-0.68661,-1.23597 -0.48062,-2.19726 0.61802,-2.88387c1.16728,-0.61798 1.99123,-0.44627 2.47184,0.51499c0.48062,1.02997 0.24034,1.99126 -0.72098,2.88387M193.2256,193.53902c-0.68661,1.02997 -1.37324,1.442 -2.05989,1.23597c-0.68661,-0.20599 -0.72098,-0.92697 -0.103,-2.16289c0.68661,-1.16728 1.40759,-1.54496 2.16289,-1.13297c0.75526,0.41199 0.75526,1.0986 0,2.05989M198.78739,189.31621l-2.57488,0.20599c-0.34334,-0.68661 0.20599,-1.37324 1.64795,-2.05989c1.44196,-0.75526 2.26588,-0.85829 2.47188,-0.30899c0.27462,0.54934 -0.24034,1.27025 -1.54496,2.16289M192.29864,187.87425c0.89261,-0.75526 1.54496,-0.96129 1.95689,-0.61798c0.48062,0.34334 0.37767,0.78961 -0.30899,1.33896c-0.68661,0.61798 -1.37324,0.85826 -2.05989,0.72098c-0.61798,-0.20599 -0.48067,-0.68661 0.41199,-1.44196M234.9388,209.19432c-0.68661,0.41199 -1.3046,0.24034 -1.8539,-0.51499c-0.54934,-0.75526 -0.44627,-1.33896 0.30899,-1.75095c0.82398,-0.48062 1.47628,-0.30899 1.95689,0.51499c0.48062,0.82398 0.34334,1.40759 -0.41199,1.75095M233.29089,180.56156c-0.13735,0.89261 -0.65233,1.37324 -1.54496,1.44196c-0.82398,0 -1.23597,-0.54926 -1.23597,-1.64787c0,-1.16728 0.48062,-1.64799 1.44196,-1.442c0.96129,0.20599 1.40763,0.75529 1.33896,1.64795M236.89574,179.22265c0.89261,-0.75526 1.51059,-0.58367 1.8539,0.51495c0.27462,1.0986 -0.20599,1.88826 -1.44196,2.36888c-1.16728,0.48062 -1.78523,0.34327 -1.8539,-0.41199c0,-0.82398 0.48067,-1.64787 1.44196,-2.47184M262.95363,217.94892c0.68661,-1.02997 0.68661,-1.92258 0,-2.67787c-0.75526,-0.75526 -1.40759,-0.61802 -1.95689,0.41199c-0.61798,1.02997 -0.58362,1.92261 0.103,2.67787c0.61798,0.68661 1.23597,0.54926 1.8539,-0.41199M261.09969,209.60631c-0.68661,-0.54934 -1.40759,-0.24034 -2.16289,0.92697c-0.75526,1.23597 -0.65233,2.16289 0.30899,2.78087c0.96129,0.48062 1.71658,0.13735 2.26588,-1.02997c0.48062,-1.16728 0.34327,-2.05989 -0.41199,-2.67787M253.478,201.36666c0.89261,1.51063 0.72098,2.54056 -0.51499,3.08986l-3.08986,-0.20599c-0.89261,-0.82398 -0.75529,-1.81958 0.41199,-2.98686l3.19286,0.103M272.12022,186.74128c2.60924,-1.23597 5.80205,-1.27028 9.57858,-0.103c0.82398,0.27462 0.89264,0.51495 0.20599,0.72098l-3.29586,0.72098c-3.77653,1.0986 -5.21843,2.78087 -4.32583,5.04679l-3.70784,0.30899l-4.94381,-0.30899l-4.84081,1.02997l-2.05989,0.72098c-3.6392,-2.3346 -6.38572,-3.29586 -8.23965,-2.88387l-4.32583,1.44196l-2.47188,0.92697l-2.16289,-1.23597c-1.8539,-0.89261 -3.74219,-1.30463 -5.66474,-1.23597l-5.87073,0.51499c-1.99126,0.06868 -3.98247,-0.48062 -5.97373,-1.64795c-7.48432,-0.06868 -12.87443,0.75529 -16.17029,2.47188c-1.0986,-0.06868 -1.64795,-0.54934 -1.64795,-1.44196c-0.06868,-1.02997 0.82398,-1.81958 2.67787,-2.36888l3.39885,-1.13297l1.44196,-1.54496c0.34334,-0.48062 0.51499,-1.64787 0.51499,-3.50185l-0.30899,-2.57488l7.93068,3.81084c5.83642,2.26588 10.19656,2.81524 13.08043,1.64795c2.12857,-0.82398 4.46314,-2.02561 7.0037,-3.60485c1.44196,-0.89261 2.40325,-1.16728 2.88387,-0.82398c0.34334,0.27462 0.72098,1.442 1.13297,3.50185c0.75526,1.92258 2.3346,3.12418 4.73782,3.60485c3.02118,0.48062 5.90505,-0.06865 8.65164,-1.64795c2.40325,-1.3046 3.70784,-1.88826 3.91384,-1.75095c0.20599,0.13735 0.06865,1.09864 -0.41199,2.88387c-0.34334,1.23597 0.75529,1.64787 3.29586,1.23597c1.44196,-0.20599 3.4332,-1.13297 5.97373,-2.78087M293.2343,207.64942c-0.68661,0.68661 -0.89261,1.71658 -0.61798,3.08986c0.27462,1.37328 0.89261,1.61359 1.8539,0.72098c0.96129,-0.89261 1.16728,-1.92258 0.61798,-3.08986c-0.48062,-1.16728 -1.0986,-1.40759 -1.8539,-0.72098M293.95529,201.98463c-0.54934,1.02997 -0.24031,2.05989 0.92697,3.08986c1.16728,1.02997 2.02558,1.13297 2.57488,0.30899c0.54934,-0.82398 0.27462,-1.8539 -0.82398,-3.08986c-1.16728,-1.3046 -2.05989,-1.40759 -2.67787,-0.30899M287.36357,187.46226c1.23597,-1.57924 3.15851,-2.26588 5.76773,-2.05989c3.08986,0.27462 5.18412,1.06429 6.28272,2.36888l-7.1067,2.26588l2.98686,0.92697c2.3346,0.82398 4.25718,1.88826 5.76773,3.19286c3.15851,2.67787 5.14979,5.28712 5.97373,7.82768c0.48062,1.16728 0.61798,2.12861 0.41199,2.88387l-6.48872,-2.78087l2.47188,7.1067c0.89261,5.35575 -0.44627,9.47558 -4.01684,12.35948l0.30899,-2.05989c0.06868,-1.23597 -0.30899,-2.02558 -1.13297,-2.36888c-2.95251,3.02118 -7.41569,5.69905 -13.38942,8.03367l0.82398,-2.05989l0.103,-1.23597c-14.96873,4.73782 -27.43114,6.59171 -37.3874,5.56174c-8.51429,-0.89261 -12.49679,-3.08986 -11.94749,-6.59171c0.27462,-1.64795 1.0986,-3.19286 2.47188,-4.63482c1.3046,-1.44196 2.54056,-2.12857 3.70784,-2.05989c-0.96129,-1.64795 -0.78961,-3.29586 0.51499,-4.94381c1.37328,-1.64795 3.12421,-2.19726 5.25278,-1.64795c2.12857,0.54934 4.18846,1.75095 6.17972,3.60485l1.75095,-3.50185c1.71658,-2.3346 3.74216,-3.50185 6.07673,-3.50185c2.95251,0.06868 5.14979,1.47628 6.59171,4.22283c0.68661,1.44196 1.13297,2.88387 1.33896,4.32583l1.54496,-4.94381c1.57924,-3.36449 3.60485,-5.32143 6.07673,-5.87073l4.73782,-0.103c0.54934,0.13735 0.89261,0.34334 1.02997,0.61798c-0.54934,-2.40325 -0.82398,-4.60045 -0.82398,-6.59171c0.13735,-3.91384 1.64795,-4.66913 4.53182,-2.26588c-1.64795,-2.40325 -1.78527,-4.42883 -0.41199,-6.07673" fill="#b1a544"/><path d="M221.65239,136.99443c5.97373,-0.06868 11.26088,3.70784 15.86133,11.32951c4.39446,7.34704 6.66034,15.20904 6.79771,23.58596c0.06868,7.69035 -2.02558,13.56105 -6.28272,17.61223c-3.91384,3.6392 -9.13231,5.52743 -15.65534,5.66474c-6.59171,0.06868 -11.87878,-1.68227 -15.86133,-5.25278c-4.39446,-4.05119 -6.62603,-9.88757 -6.69471,-17.50923c-0.13735,-8.44564 1.95689,-16.34195 6.28272,-23.68896c4.46314,-7.75903 9.64726,-11.67283 15.55234,-11.7415" fill="#000000"/><path d="M221.65239,139.05435c5.49311,-0.06868 10.4369,3.46748 14.83136,10.60855c4.11983,6.72906 6.21404,14.0074 6.28272,21.83506v0.30899c-2.26588,7.89631 -6.52303,13.56105 -12.77144,16.99427c-6.45435,3.57048 -13.35509,3.84516 -20.70209,0.82398c-5.21843,-3.6392 -7.86196,-9.50993 -7.93068,-17.61223c-0.13735,-7.82768 1.78527,-15.17463 5.76773,-22.04106c4.18846,-7.27832 9.02928,-10.91754 14.52237,-10.91754" fill="#ebebeb"/><path d="M234.9388,147.29399c1.0986,4.73782 0.85826,9.61289 -0.72098,14.62537c-1.99126,6.45435 -5.56174,11.50116 -10.71155,15.14035c-5.01244,3.57048 -10.12791,4.66913 -15.34635,3.29586c-2.3346,-0.61798 -4.4631,-1.75095 -6.38572,-3.39885l-0.41199,-4.94381c-0.13735,-7.82768 1.78527,-15.17463 5.76773,-22.04106c4.18846,-7.27832 9.02928,-10.91754 14.52237,-10.91754c4.73782,-0.06868 9.16659,2.67787 13.28642,8.23965" fill="#ffffff"/><path d="M266.14649,136.99443c5.9051,-0.06868 11.19216,3.70784 15.86133,11.32951c4.32583,7.34704 6.55743,15.20904 6.69471,23.58596c0.13735,7.62168 -1.95689,13.49238 -6.28272,17.61223c-3.91384,3.6392 -9.13227,5.52743 -15.65534,5.66474c-6.59171,0.06868 -11.87883,-1.68227 -15.86133,-5.25278c-4.39446,-4.05119 -6.62603,-9.88757 -6.69467,-17.50923c-0.06868,-8.44564 2.02558,-16.34195 6.28272,-23.68896c4.46314,-7.75903 9.68157,-11.67283 15.65534,-11.7415" fill="#000000"/><path d="M245.75334,172.01295c-0.13735,-7.82768 1.78527,-15.17463 5.76773,-22.04106c4.25718,-7.27832 9.13231,-10.91754 14.62537,-10.91754c5.42446,-0.06868 10.33387,3.46748 14.72836,10.60855c4.11983,6.72906 6.21404,14.0074 6.28272,21.83506c0.06868,7.14105 -1.88823,12.63416 -5.87073,16.47928c-3.57048,3.4332 -8.41133,5.14979 -14.52237,5.14979c-6.11104,0.13735 -11.05482,-1.51063 -14.83136,-4.94381c-4.05119,-3.6392 -6.11104,-9.02928 -6.17972,-16.17029" fill="#d4d4d4"/><path d="M245.75334,172.01295c-0.13735,-7.82768 1.78527,-15.17463 5.76773,-22.04106c4.25718,-7.27832 9.13231,-10.91754 14.62537,-10.91754c5.42446,-0.06868 10.33387,3.46748 14.72836,10.60855c4.11983,6.72906 6.21404,14.0074 6.28272,21.83506v0.30899c-2.26588,7.89631 -6.52303,13.56105 -12.77144,16.99427c-6.38572,3.57048 -13.25209,3.84516 -20.5991,0.82398c-5.28708,-3.6392 -7.96495,-9.50993 -8.03367,-17.61223" fill="#ebebeb"/><path d="M245.75334,172.01295c-0.13735,-7.82768 1.78527,-15.17463 5.76773,-22.04106c4.25718,-7.27832 9.13231,-10.91754 14.62537,-10.91754c4.73782,-0.06868 9.13227,2.67787 13.18342,8.23965c1.16728,4.73782 0.92697,9.61289 -0.72098,14.62537c-1.99126,6.45435 -5.56174,11.50116 -10.71155,15.14035c-5.01244,3.57048 -10.12791,4.66913 -15.34635,3.29586c-2.40325,-0.61798 -4.53182,-1.75095 -6.38572,-3.39885l-0.41199,-4.94381" fill="#ffffff"/><path d="M228.65607,154.09173c4.66913,-8.1023 10.05928,-12.15349 16.17029,-12.15349c6.17972,-0.06868 11.70715,3.87947 16.58228,11.8445c4.53182,7.55304 6.86639,15.72399 7.0037,24.51294c0.06868,7.96499 -2.12857,14.07603 -6.59171,18.33321c-4.05119,3.84516 -9.47558,5.76773 -16.27329,5.76773c-6.86639,0.13735 -12.35941,-1.68223 -16.47928,-5.45874c-4.60049,-4.18846 -6.93502,-10.23091 -7.0037,-18.12722c-0.06868,-8.72028 2.12857,-16.95993 6.59171,-24.71893" fill="#000000"/><path d="M229.68605,155.43064c4.39446,-7.62168 9.44127,-11.43251 15.14035,-11.43251c5.76773,-0.06868 10.91754,3.60485 15.44934,11.02054c4.25718,7.07233 6.45444,14.65974 6.59171,22.76204c0,7.48432 -2.05989,13.18342 -6.17972,17.09726c-3.70784,3.57048 -8.75464,5.42446 -15.14035,5.56174c-6.38572,0.06868 -11.50116,-1.64795 -15.34635,-5.14979c-4.25718,-3.84516 -6.45444,-9.47558 -6.59171,-16.89127c-0.06868,-8.23965 1.95689,-15.89565 6.07673,-22.96803" fill="#d4d4d4"/><path d="M229.68605,155.43064c4.39446,-7.62168 9.44127,-11.43251 15.14035,-11.43251c5.76773,-0.06868 10.91754,3.60485 15.44934,11.02054c4.25718,7.07233 6.45444,14.65974 6.59171,22.76204v0.41199c-2.40325,8.23965 -6.86634,14.14475 -13.38942,17.71523c-6.66034,3.6392 -13.83572,3.87947 -21.52607,0.72098c-5.42446,-3.77653 -8.2053,-9.85325 -8.34265,-18.23021c-0.06868,-8.23965 1.95689,-15.89565 6.07673,-22.96803" fill="#ebebeb"/><path d="M229.68605,155.43064c4.39446,-7.62168 9.44127,-11.43251 15.14035,-11.43251c4.94381,-0.06868 9.54426,2.78087 13.80141,8.54864c1.16728,4.94381 0.92697,10.05919 -0.72098,15.34635c-2.12857,6.66034 -5.83642,11.87883 -11.12353,15.65534c-5.35575,3.77653 -10.71155,4.94381 -16.06729,3.50185c-2.3346,-0.54934 -4.53182,-1.71658 -6.59171,-3.50185l-0.51499,-5.14979c-0.06868,-8.23965 1.95689,-15.89565 6.07673,-22.96803" fill="#ffffff"/><path d="M274.6951,190.75812c1.16728,-2.19722 2.57488,-3.39885 4.22283,-3.60485l7.41569,0.61798l-2.36888,3.08986c-1.23597,3.15851 -0.96129,7.62168 0.82398,13.38942c-1.3046,-2.3346 -3.77647,-2.95251 -7.41569,-1.8539c-3.36449,0.89261 -5.56174,2.36888 -6.59171,4.42883c-4.87513,-1.3046 -8.92628,-1.64795 -12.15349,-1.02997l-7.62168,1.95689l-19.36318,-1.64795l-11.22651,-1.64795l-14.62537,-10.40255l3.29586,-2.05989c2.67787,-1.23597 5.28712,-1.81962 7.82768,-1.75095c4.11983,0.27462 7.51869,0.96129 10.19656,2.05989l4.53182,-0.30899l7.2097,0.92697c2.54056,0.96129 4.15418,1.71658 4.84081,2.26588l2.47188,-1.54496c1.92258,-0.96129 3.87947,-1.27028 5.87073,-0.92697c3.22721,0.61798 5.73346,1.40759 7.51869,2.36888l3.39885,-0.92697l5.97373,-0.61798l4.63482,0.51499l1.13297,-3.29586" fill="#e0cf3d"/><path d="M286.74559,202.70561l0.61798,3.29586l-2.16289,-3.60485c-2.05989,-2.74656 -4.49745,-4.77213 -7.31269,-6.07673c-3.08986,-1.44196 -6.9007,-2.02558 -11.43251,-1.75095l-5.97373,1.02997l1.23597,0.61798l2.57488,1.75095c1.23597,1.02997 1.8539,3.22721 1.8539,6.59171c-0.48062,-1.44196 -1.44196,-2.98686 -2.88387,-4.63482c-2.67787,-3.15851 -6.21407,-5.11547 -10.60855,-5.87073c-2.47188,-0.41199 -4.66913,0 -6.59171,1.23597l-2.05989,2.05989l-2.05989,-1.75095c-1.92258,-1.23597 -4.60045,-1.88823 -8.03367,-1.95689c-1.99126,-0.06868 -4.63482,1.68223 -7.93068,5.25278l-4.42883,5.45874l0.20599,-2.57488c0.48062,-1.99126 1.51063,-3.77653 3.08986,-5.35575c1.64795,-1.71658 2.98686,-2.57488 4.01684,-2.57488c-4.80645,-1.44196 -9.33827,-2.05989 -13.59541,-1.8539c-2.81524,0.20599 -5.93941,1.0986 -9.37258,2.67787l-4.42883,2.36888l3.08986,-2.67787c2.40325,-1.8539 4.60045,-3.02118 6.59171,-3.50185l11.22651,-0.51499c3.02118,0.48062 4.63482,0.9956 4.84081,1.54496c4.80645,-0.54934 8.65164,-0.54934 11.53551,0l5.14979,1.33896c4.11983,-1.64795 7.75903,-2.09422 10.91754,-1.33896c1.64795,0.34334 3.08986,0.96129 4.32583,1.8539l13.08043,-0.82398l2.05989,-3.39885l2.78087,-2.26588c1.02997,-0.82398 2.74659,-0.9956 5.14979,-0.51499c1.16728,0.20599 2.23157,0.51499 3.19286,0.92697l-2.57488,-0.103c-2.12857,0.13735 -3.94819,0.68661 -5.45874,1.64795c-0.75526,0.48062 -1.3046,1.40759 -1.64795,2.78087l-0.41199,2.05989l2.78087,0.61798c2.12857,0.61798 3.94819,1.51063 5.45874,2.67787c1.44196,1.16728 2.50625,2.95251 3.19286,5.35575" fill="#666032"/></g></g></g></svg>