<?xml version="1.0" encoding="UTF-8" standalone="no"?>
<!DOCTYPE svg PUBLIC "-//W3C//DTD SVG 1.1//EN" "http://www.w3.org/Graphics/SVG/1.1/DTD/svg11.dtd">
<svg width="100%" height="100%" viewBox="0 0 118 117" version="1.1" xmlns="http://www.w3.org/2000/svg" xmlns:xlink="http://www.w3.org/1999/xlink" xml:space="preserve" xmlns:serif="http://www.serif.com/" style="fill-rule:evenodd;clip-rule:evenodd;stroke-linecap:round;stroke-linejoin:round;stroke-miterlimit:10;">
    <g transform="matrix(1,0,0,1,-47.2,-177.067926)">
        <g>
            <path d="M48.6,238.4L47.2,249.7L62.8,250.8L50.3,259L56.2,263.9L68.5,251.2L68.5,246.7L48.6,238.4Z" style="fill-rule:nonzero;"/>
            <path d="M130.9,197C128.7,188.5 122.2,178 115,178.6C111.5,178.9 110,181.3 109.9,184.2C103.9,181.7 94.2,180.8 94.2,187.6C94.2,190.2 95.9,192.4 98.2,194C78.7,200.1 64.4,219.6 64.4,242.6C64.4,273.3 85.3,291.8 111,291.8C136.7,291.8 157.6,273.3 157.6,242.6C157.6,222.6 146.7,205.1 130.9,197Z" style="fill:rgb(0,192,243);fill-rule:nonzero;"/>
            <path d="M132.1,195.9C129.7,187.3 123,176.4 114.9,177.1C111.7,177.4 109.5,179.3 108.8,182.2C104.3,180.7 98.7,180.1 95.5,182.3C93.8,183.5 92.8,185.3 92.8,187.6C92.8,189.8 93.8,191.8 95.4,193.4C76.6,200.4 63,219.8 63,242.5C63,272.3 82.7,293.1 111,293.1C139.3,293.1 159,272.3 159,242.5C159,222.1 148,204.4 132.1,195.9ZM111,290.3C84.4,290.3 65.8,270.7 65.8,242.6C65.8,220.4 79.4,201.7 98,195.6C100.2,196.9 102.7,197.7 105.1,197.7C105.9,197.7 106.5,197.1 106.5,196.3C106.5,195.5 105.9,194.9 105.1,194.9C100.8,194.9 95.6,191.6 95.6,187.7C95.6,186.4 96,185.4 97,184.8C99.4,183.2 104.5,183.8 108.5,185.3C108.7,189.5 111.1,194.2 114.3,196C115,196.4 115.8,196.1 116.2,195.4C116.6,194.7 116.3,193.9 115.6,193.5C112.8,192 110.6,186.7 111.4,183.3C111.8,181.3 113,180.3 115.1,180.1C122.2,179.5 129.2,192.2 130.1,200.8C130.2,201.5 130.8,202.1 131.5,202.1L131.7,202.1C132.5,202 133,201.3 133,200.5C133,200.3 132.9,200 132.9,199.8C146.8,208.2 156.2,224.3 156.2,242.7C156.2,270.7 137.6,290.3 111,290.3Z" style="fill-rule:nonzero;"/>
            <circle cx="108" cy="224.4" r="14.1" style="fill:white;stroke:black;stroke-width:2.84px;"/>
            <circle cx="114.9" cy="223.3" r="3.2"/>
            <path d="M94,226.4C99.5,229.8 112.9,232.9 122.1,228.6C122.1,228.6 116.5,244.1 104.9,244.6C93.3,245.2 90.1,232 94,226.4Z" style="fill:rgb(247,148,30);fill-rule:nonzero;stroke:black;stroke-width:2.84px;"/>
            <circle cx="137.7" cy="224.4" r="14.1" style="fill:white;stroke:black;stroke-width:2.84px;"/>
            <circle cx="142.1" cy="223.3" r="3.2"/>
            <path d="M151.8,226.4C146.3,229.8 132.9,232.9 123.7,228.6C123.7,228.6 129.3,244.1 140.9,244.6C152.4,245.2 155.6,232 151.8,226.4Z" style="fill:rgb(247,148,30);fill-rule:nonzero;stroke:black;stroke-width:2.84px;"/>
            <path d="M99.5,245.8C99.5,245.8 103.4,256.4 106.9,259.4C114.9,266.2 137.3,271 142.2,267.9C147.1,264.8 135.9,244 135.9,244L99.5,245.8Z" style="fill:rgb(229,168,18);fill-rule:nonzero;stroke:black;stroke-width:2.84px;"/>
            <path d="M130.6,244C135.8,251.1 140,262.1 138.9,263.9C137.1,267 109.2,253.5 107.2,244C106,238 130.6,244 130.6,244Z" style="fill:rgb(215,25,32);fill-rule:nonzero;stroke:black;stroke-width:2.84px;"/>
            <path d="M98.3,245.7C98.3,245.7 114.4,228.4 123.8,228.4C133.3,228.4 163.1,248 163.1,248C163.1,248 131.6,246.6 123.6,246.3C115.6,246 98.3,245.7 98.3,245.7Z" style="fill:rgb(253,185,19);fill-rule:nonzero;stroke:black;stroke-width:2.84px;"/>
        </g>
    </g>
</svg>
