<?xml version="1.0" encoding="UTF-8" standalone="no"?>
<!DOCTYPE svg PUBLIC "-//W3C//DTD SVG 1.1//EN" "http://www.w3.org/Graphics/SVG/1.1/DTD/svg11.dtd">
<svg width="100%" height="100%" viewBox="0 0 118 117" version="1.1" xmlns="http://www.w3.org/2000/svg" xmlns:xlink="http://www.w3.org/1999/xlink" xml:space="preserve" xmlns:serif="http://www.serif.com/" style="fill-rule:evenodd;clip-rule:evenodd;stroke-linecap:round;stroke-linejoin:round;stroke-miterlimit:10;">
    <g transform="matrix(1,0,0,1,-152,-231.567926)">
        <g>
            <path d="M153.4,292.9L152,304.2L167.6,305.3L155.1,313.4L161,318.4L173.3,305.6L173.3,301.1L153.4,292.9Z" style="fill-rule:nonzero;"/>
            <path d="M235.8,251.5C233.6,243 227.1,232.5 219.9,233.1C216.4,233.4 214.9,235.8 214.8,238.7C208.8,236.2 199.1,235.3 199.1,242.1C199.1,244.7 200.8,246.9 203.1,248.5C183.6,254.6 169.3,274.1 169.3,297.1C169.3,327.8 190.2,346.3 215.9,346.3C241.6,346.3 262.5,327.8 262.5,297.1C262.4,277 251.5,259.6 235.8,251.5Z" style="fill:rgb(0,192,243);fill-rule:nonzero;"/>
            <path d="M236.9,250.4C234.5,241.8 227.8,230.9 219.7,231.6C216.5,231.9 214.3,233.8 213.6,236.7C209.1,235.2 203.5,234.6 200.3,236.8C198.6,238 197.6,239.8 197.6,242.1C197.6,244.3 198.6,246.3 200.2,247.9C181.4,254.9 167.8,274.3 167.8,297C167.8,326.8 187.5,347.6 215.8,347.6C244.1,347.6 263.8,326.8 263.8,297C263.9,276.6 252.9,258.9 236.9,250.4ZM215.8,344.8C189.2,344.8 170.6,325.2 170.6,297.1C170.6,274.9 184.2,256.2 202.8,250.1C205,251.4 207.5,252.2 209.9,252.2C210.7,252.2 211.3,251.6 211.3,250.8C211.3,250 210.7,249.4 209.9,249.4C205.6,249.4 200.4,246.1 200.4,242.2C200.4,240.9 200.8,239.9 201.8,239.3C204.2,237.7 209.4,238.3 213.3,239.8C213.5,244 215.9,248.7 219.1,250.5C219.8,250.9 220.6,250.6 221,249.9C221.4,249.2 221.1,248.4 220.4,248C217.6,246.5 215.4,241.2 216.2,237.8C216.6,235.8 217.8,234.8 219.9,234.6C227,234 234,246.7 234.9,255.3C235,256 235.6,256.6 236.3,256.6L236.5,256.6C237.3,256.5 237.8,255.8 237.8,255C237.8,254.8 237.7,254.5 237.7,254.3C251.6,262.7 261,278.8 261,297.2C261,325.2 242.4,344.8 215.8,344.8Z" style="fill-rule:nonzero;"/>
            <circle cx="212.9" cy="281.4" r="14.1" style="fill:rgb(0,192,243);stroke:black;stroke-width:2.84px;"/>
            <path d="M198.8,280.9C204.3,284.3 217.7,287.4 226.9,283.1C226.9,283.1 221.3,298.6 209.7,299.1C198.1,299.7 195,286.5 198.8,280.9Z" style="fill:rgb(247,148,30);fill-rule:nonzero;stroke:black;stroke-width:2.84px;"/>
            <circle cx="242.5" cy="281.4" r="14.1" style="fill:rgb(0,192,243);stroke:black;stroke-width:2.84px;"/>
            <path d="M256.6,280.9C251.1,284.3 237.7,287.4 228.5,283.1C228.5,283.1 234.1,298.6 245.7,299.1C257.3,299.7 260.4,286.5 256.6,280.9Z" style="fill:rgb(247,148,30);fill-rule:nonzero;stroke:black;stroke-width:2.84px;"/>
            <path d="M204.3,300.2C204.3,300.2 215.4,318.8 223.7,318.4C232,317.9 259.6,302.2 259.6,302.2L220.6,295.7L204.3,300.2Z" style="fill:rgb(229,168,18);fill-rule:nonzero;stroke:black;stroke-width:2.84px;"/>
            <path d="M203.1,300.2C203.1,300.2 219.2,282.9 228.6,282.9C238.1,282.9 267.9,302.5 267.9,302.5C267.9,302.5 236.4,301.1 228.4,300.8C220.4,300.7 203.1,300.2 203.1,300.2Z" style="fill:rgb(253,185,19);fill-rule:nonzero;stroke:black;stroke-width:2.84px;"/>
        </g>
    </g>
</svg>
