<?xml version="1.0" encoding="UTF-8" standalone="no"?>
<!DOCTYPE svg PUBLIC "-//W3C//DTD SVG 1.1//EN" "http://www.w3.org/Graphics/SVG/1.1/DTD/svg11.dtd">
<svg width="100%" height="100%" viewBox="0 0 1000 1000" version="1.1" xmlns="http://www.w3.org/2000/svg" xmlns:xlink="http://www.w3.org/1999/xlink" xml:space="preserve" xmlns:serif="http://www.serif.com/" style="fill-rule:evenodd;clip-rule:evenodd;stroke-linejoin:round;stroke-miterlimit:2;">
    <g transform="matrix(7.107724,0,0,7.107724,-3684.595891,-2482.614812)">
        <path d="M588.8,385.2C588.8,385.2 555.1,385.6 553.6,420.4C553.6,420.4 551,454.5 591.4,454.8C631.8,455.2 623.6,416.3 622.5,411.4C621.4,406.5 614.6,387.8 594.1,385.6C594.1,385.6 595.2,374.4 600.5,368.4C600.5,368.4 596.4,363.2 591.1,362.8C591,362.7 586.5,365.7 588.8,385.2Z" style="fill-rule:nonzero;"/>
        <path d="M569.7,448C569.7,448 595.5,412.8 614.2,445C614.2,445 599.6,460.4 569.7,448Z" style="fill:rgb(67,67,67);fill-rule:nonzero;"/>
        <path d="M591.5,364C591.5,364 589.8,366.5 589.8,369.1C589.8,369.1 592.5,368.3 596.3,371.8C596.3,371.8 597.6,369.8 598.7,368.3C598.7,368.2 596.5,365.6 591.5,364Z" style="fill:rgb(255,192,0);fill-rule:nonzero;"/>
        <g>
            <g>
                <path d="M586.5,403.6C585.8,408.8 581.9,411.8 576.7,411.8C571.5,411.8 566.9,408.8 567.5,403.6C568.2,398.4 573.2,393.4 577.9,395.8C583.3,398.4 587.2,398.4 586.5,403.6Z" style="fill:rgb(67,67,67);fill-rule:nonzero;"/>
                <path d="M573.2,403.3C573.2,403.3 573.3,397.2 578.7,396.9C585.4,396.5 585.9,401.6 584.9,403.6C583.5,406.2 574.3,408.7 573.2,403.3Z" style="fill:white;fill-rule:nonzero;"/>
                <path d="M579.8,399.3C579.6,399.6 579.4,399.9 579.3,400.3C578.9,401.8 579.5,403.3 580.6,403.6C581.8,404 583.1,403 583.5,401.5C583.6,401.2 583.6,400.9 583.6,400.6C582.8,400.4 581.4,400 579.8,399.3Z" style="fill:rgb(35,31,32);fill-rule:nonzero;"/>
                <path d="M573.2,403.3C573.2,403.3 573,397.3 579.2,397.4C585.4,397.5 584.8,403.6 584.8,403.6L585.3,403.6C585.3,403.6 586,397.1 579.1,396.9C572.2,396.8 572.4,403.3 572.4,403.3L573.2,403.3Z" style="fill-rule:nonzero;"/>
                <path d="M586.3,401.9L566,394.9L567,391.2L586.1,398.6L586.3,401.9Z" style="fill:rgb(196,69,0);fill-rule:nonzero;"/>
            </g>
            <g>
                <path d="M602.8,404.7C603.8,409.8 605.7,410 609.5,409.6C613.2,409.1 617.4,408.1 616.4,403C615.4,397.9 612.3,393.9 609,396C604.9,398.6 601.8,399.6 602.8,404.7Z" style="fill:rgb(67,67,67);fill-rule:nonzero;"/>
                <path d="M612.5,401.6C612.5,401.6 611.2,396.4 608,397C604.8,397.6 603.5,401.2 604.1,402.9C604.8,405 613.7,408.6 612.5,401.6Z" style="fill:white;fill-rule:nonzero;"/>
                <path d="M607.6,399.8C607.8,400 607.9,400.3 608,400.5C608.4,401.7 608,402.9 607.1,403.2C606.2,403.5 605.1,402.9 604.8,401.7C604.7,401.5 604.7,401.2 604.7,401C605.3,400.8 606.4,400.4 607.6,399.8Z" style="fill:rgb(35,31,32);fill-rule:nonzero;"/>
                <path d="M612.5,401.6C612.5,401.6 611.6,397 607.6,397.5C603.1,398 604,403 604,403L603.6,403.1C603.6,403.1 602.5,398 607.5,397.2C612.5,396.5 612.8,401.7 612.8,401.7L612.5,401.6Z" style="fill-rule:nonzero;"/>
                <path d="M603.9,402.1L618.6,394.6L618.3,390.8L602.9,399.3L603.9,402.1Z" style="fill:rgb(196,69,0);fill-rule:nonzero;"/>
            </g>
            <g transform="matrix(0.9847,0.1741,-0.1741,0.9847,77.5476,-97.736)">
                <ellipse cx="595.7" cy="393" rx="4.3" ry="3.4" style="fill:white;"/>
            </g>
            <g>
                <path d="M585.8,414.5C585.8,414.5 589.3,427 592,427C594.7,427 603.7,430.9 611.3,413.7C611.2,413.7 598.2,409.2 585.8,414.5Z" style="fill:rgb(255,174,0);fill-rule:nonzero;"/>
                <path d="M594,406.3C594,406.3 612.7,405.1 615.8,413.1C615.8,413.1 603.5,407.6 587.1,412.7" style="fill:rgb(255,174,0);fill-rule:nonzero;"/>
            </g>
        </g>
    </g>
</svg>
