<?xml version="1.0" encoding="UTF-8" standalone="no"?>
<!DOCTYPE svg PUBLIC "-//W3C//DTD SVG 1.1//EN" "http://www.w3.org/Graphics/SVG/1.1/DTD/svg11.dtd">
<svg width="100%" height="100%" viewBox="0 0 1000 1000" version="1.1" xmlns="http://www.w3.org/2000/svg" xmlns:xlink="http://www.w3.org/1999/xlink" xml:space="preserve" xmlns:serif="http://www.serif.com/" style="fill-rule:evenodd;clip-rule:evenodd;stroke-linecap:round;stroke-linejoin:round;stroke-miterlimit:10;">
    <g transform="matrix(0.725285,0,0,0.725285,112.355014,115.375573)">
        <g transform="matrix(3.494409,0,0,3.494409,-842.794566,-1465.555112)">
            <path d="M287.5,552.7L276.6,557.9C276.6,557.9 281.1,568.2 292.4,574.1L266.9,567.6L262.1,584.5L294,582.2L276.6,592.5L284.1,601.4L303.2,583.9L303.5,572.9C301.8,571.8 291.4,564.9 287.5,552.7Z" style="fill-rule:nonzero;"/>
            <path d="M405.8,479.7C408.5,464.1 410.7,430.4 410.7,430.4L392.3,430.4C392.3,430.4 394.4,448.1 395.1,461.3L381.3,419.4L362.5,427.9L378.8,463.4L358.9,440.3L346.2,458.7C346.2,458.7 366,471.1 374.5,479.6L405.8,479.6L405.8,479.7Z" style="fill-rule:nonzero;"/>
            <path d="M481,583.5C481,641.4 441.8,668.4 390,668.4C338.2,668.4 299,641.4 299,583.5C299,525.6 356.1,473.1 392.8,473.1C429.6,473 481,525.6 481,583.5Z" style="fill:white;fill-rule:nonzero;"/>
            <ellipse cx="444.1" cy="554.8" rx="21.5" ry="25.7" style="fill:rgb(255,242,190);"/>
            <path d="M452.8,521.1C452.8,513.8 446,507.9 437.7,507.9C429.3,507.9 422.6,513.8 422.6,521.1C422.6,528.4 429.4,534.3 437.7,534.3C439.9,534.3 442,533.9 443.9,533.1C444.6,534.5 446,535.5 447.7,535.5C450,535.5 451.9,533.6 451.9,531.3C451.9,530.1 451.3,529 450.5,528.2C451.9,526.2 452.8,523.7 452.8,521.1Z" style="fill:white;fill-rule:nonzero;stroke:black;stroke-width:2.84px;"/>
            <circle cx="440.6" cy="523" r="4.2"/>
            <ellipse cx="341" cy="558.8" rx="21.5" ry="25.7" style="fill:rgb(255,242,190);"/>
            <path d="M334.6,523C334.6,515.7 341.4,509.8 349.7,509.8C358.1,509.8 364.8,515.7 364.8,523C364.8,530.3 358,536.2 349.7,536.2C347.5,536.2 345.4,535.8 343.5,535C342.8,536.4 341.4,537.4 339.7,537.4C337.4,537.4 335.5,535.5 335.5,533.2C335.5,532 336.1,530.9 336.9,530.1C335.5,528.1 334.6,525.6 334.6,523Z" style="fill:white;fill-rule:nonzero;stroke:black;stroke-width:2.84px;"/>
            <circle cx="352.5" cy="524.9" r="4.2"/>
            <path d="M325.7,648.1C341.9,661.8 364.4,668.4 390,668.4C419.5,668.4 444.8,659.6 461.2,641.5C446.6,627 427.5,615.3 396.8,615.3C366,615.2 343.7,629.2 325.7,648.1Z" style="fill:rgb(255,242,190);fill-rule:nonzero;stroke:black;stroke-width:2.84px;"/>
            <path d="M390,669.8C332.1,669.8 297.6,637.5 297.6,583.5C297.6,523.9 357,471.6 392.9,471.6C432,471.6 482.5,525.8 482.5,583.5C482.4,637.5 447.9,669.8 390,669.8ZM392.9,474.4C358.1,474.4 300.5,525.4 300.5,583.4C300.5,635.7 334,666.9 390.1,666.9C446.2,666.9 479.7,635.7 479.7,583.4C479.6,528.3 429.9,474.4 392.9,474.4Z" style="fill-rule:nonzero;"/>
            <path d="M418.4,506L420.5,513.8L464.2,509.9L459,498.2L418.4,506Z" style="fill-rule:nonzero;"/>
            <path d="M369,507.9L366.9,515.7L323.2,511.8L328.4,500.2L369,507.9Z" style="fill-rule:nonzero;"/>
            <path d="M393.7,509C407.1,509 437.8,524.1 437.8,569.2C437.8,614.4 364.3,604.4 364.3,577C364.4,549.6 382.5,509 393.7,509Z" style="fill:rgb(253,185,19);fill-rule:nonzero;stroke:black;stroke-width:2.84px;"/>
            <path d="M366.5,593.2C360.4,584 387.3,562.6 406.7,562.1C426.1,561.7 446,562.1 446,562.1C446,562.1 446.4,594.1 421.8,603C396,612.5 372.8,602.8 366.5,593.2Z" style="fill:rgb(229,168,18);fill-rule:nonzero;stroke:black;stroke-width:2.84px;"/>
        </g>
    </g>
</svg>
