<?xml version="1.0" encoding="UTF-8" standalone="no"?>
<!DOCTYPE svg PUBLIC "-//W3C//DTD SVG 1.1//EN" "http://www.w3.org/Graphics/SVG/1.1/DTD/svg11.dtd">
<svg width="100%" height="100%" viewBox="0 0 1000 1000" version="1.1" xmlns="http://www.w3.org/2000/svg" xmlns:xlink="http://www.w3.org/1999/xlink" xml:space="preserve" xmlns:serif="http://www.serif.com/" style="fill-rule:evenodd;clip-rule:evenodd;stroke-linejoin:round;stroke-miterlimit:2;">
    <g transform="matrix(6.692316,0,0,6.692316,34.507435,-1524.048873)">
        <g>
            <g>
                <path d="M68.4,339.8C66.8,339.8 65.3,339.7 63.8,339.6C47.8,338.3 29.4,328.2 27,311.9C24.4,294.8 32,285.5 38.6,277.3C39.2,276.5 39.9,275.7 40.5,275C39,274.1 38,272.5 37.6,270.6C36.9,267 38.6,263.3 41.6,261.9C47.9,258.8 52,266.8 52.2,267.9C55.6,266.9 59.4,266.3 63.1,265.8C64.9,265.5 66.8,265.2 68.7,264.9C68.5,264.2 65.1,258 73.8,256C73.8,256 76.6,255.4 79.7,257.9C79.9,258.1 80.2,258.3 80.4,258.5L80.7,258.7C83.5,261.6 82.5,264.8 81.2,267.2C93,272.4 110.7,283.8 112.7,305.7C113.5,314.6 110.2,320.1 106.9,324.2C99,333.6 83.9,339.8 68.4,339.8Z" style="fill:rgb(35,31,32);fill-rule:nonzero;"/>
            </g>
        </g>
        <path d="M73.4,257.6C74.8,257.3 77.5,258 78.7,259.3C81.2,262 80.2,264.5 78.7,267.2C94.7,273.8 108.3,286.4 110.1,305.6C110.8,313.4 108.4,318.3 104.7,322.9C96.6,333 80.6,338.5 64.2,337.2C48.4,335.9 30.7,326.6 28.5,311.6C25.6,292.2 35.9,283.6 43.3,273.5C37.7,273.1 37.9,265 42,263.1C48.4,261.3 50.1,267.5 50.5,269.9C56.4,267.7 64.1,267.3 70.7,265.8C69.9,264.6 66.1,259.4 73.4,257.6Z" style="fill:rgb(109,224,74);"/>
        <path d="M49.1,271.9C49.1,271.9 92.9,270.9 108.2,296.8C108.9,298 108.2,295 108.2,295C108.2,295 103.1,277.8 78.8,267.3C78.8,267.3 82,263 78.9,260.8C75.8,258.6 76.6,262 76.6,262C76.6,262 76.7,267 72.2,267C72.2,267 53.5,266.6 49.1,271.9Z" style="fill:rgb(157,246,124);"/>
        <g>
            <path d="M57.6,316C57.6,316 57.2,329.7 69.4,329.7C81.6,329.7 80,317.3 80,317.3L57.6,316Z" style="fill:rgb(81,188,48);"/>
            <g>
                <g>
                    <g>
                        <path d="M41.6,318.3C35.7,318.3 31,312.9 31,306.2C31,299.5 35.8,294.1 41.6,294.1C47.5,294.1 52.2,299.5 52.2,306.2C52.2,312.9 47.5,318.3 41.6,318.3Z" style="fill:rgb(70,181,41);fill-rule:nonzero;"/>
                    </g>
                </g>
                <g>
                    <g>
                        <path d="M41.1,314C35.7,314 31.3,309.6 31.3,304.1C31.3,298.6 35.7,294.2 41.1,294.2C46.5,294.2 50.9,298.6 50.9,304.1C50.9,309.6 46.5,314 41.1,314Z" style="fill:rgb(104,156,1);fill-rule:nonzero;"/>
                    </g>
                </g>
                <g>
                    <ellipse cx="41.3" cy="304.1" rx="9.1" ry="8.4" style="fill:white;"/>
                </g>
                <ellipse cx="41.8" cy="302.3" rx="2.1" ry="2.3" style="fill:rgb(35,31,32);"/>
            </g>
            <g>
                <g>
                    <g>
                        <path d="M86.6,303.7C86.6,297.7 90.8,292.8 96,292.8C101.2,292.8 105.4,297.7 105.4,303.7C105.4,309.7 101.2,314.6 96,314.6C90.9,314.6 86.6,309.7 86.6,303.7Z" style="fill:rgb(70,181,41);fill-rule:nonzero;"/>
                    </g>
                </g>
                <g>
                    <g>
                        <path d="M87.8,301.9C87.8,296.9 91.7,292.9 96.5,292.9C101.3,292.9 105.2,296.9 105.2,301.9C105.2,306.9 101.3,310.9 96.5,310.9C91.7,310.9 87.8,306.9 87.8,301.9Z" style="fill:rgb(104,156,1);fill-rule:nonzero;"/>
                    </g>
                </g>
                <g>
                    <ellipse cx="96.5" cy="301.6" rx="7.9" ry="7.2" style="fill:white;"/>
                </g>
                <circle cx="97.7" cy="298" r="1.8" style="fill:rgb(35,31,32);"/>
            </g>
            <g>
                <g>
                    <path d="M59.5,318.3C65.3,320.4 72.4,320.2 79.2,319.1C76.4,327.9 62,327.1 59.5,318.3Z" style="fill:rgb(165,233,0);"/>
                    <path d="M69.8,325.9C65.4,325.9 60.4,323.6 59,318.5L58.7,317.4L59.8,317.8C64.8,319.6 71.4,319.8 79.2,318.6L80.2,318.4L79.9,319.3C78.5,323.4 74.6,325.9 69.8,325.9ZM60.5,319.2C62.1,323 66.2,324.7 69.8,324.7C72.9,324.7 76.7,323.4 78.3,319.8C71.3,320.9 65.3,320.7 60.5,319.2Z" style="fill:rgb(102,155,0);fill-rule:nonzero;"/>
                </g>
                <g>
                    <path d="M70.2,289.7C77.6,289.7 86.9,291.9 89,298.1C90.5,302.6 89.7,307.4 86.9,311.8C83.4,317.2 77.4,321.1 71.4,321.7C70.7,321.8 70,321.8 69.3,321.8C62.5,321.8 55.3,318.1 51.5,312.7C48.4,308.3 47.8,303.3 49.6,298.4C51.9,292.4 61.9,289.7 70.2,289.7Z" style="fill:rgb(102,155,0);fill-rule:nonzero;"/>
                    <path d="M71.1,320.3C59.9,321.6 46.5,311.2 51.1,299C54.8,289.1 83.7,288 87.2,298.7C90.6,309.1 80.5,319.2 71.1,320.3Z" style="fill:rgb(165,233,0);"/>
                    <path d="M63.8,299.8C61.1,299.3 57.8,304.4 58.6,307.3C59.4,310.6 64.5,312.4 67.3,310.6C69,306.7 68.3,300.6 63.8,299.8Z" style="fill:rgb(21,57,15);"/>
                    <path d="M73.7,300.6C72.1,302.3 71.8,307.3 73.7,308.9C81.6,310.9 82.9,297.2 73.7,300.6Z" style="fill:rgb(21,57,15);"/>
                </g>
            </g>
            <path d="M71.7,291.7C71.7,291.7 87.6,297.4 85.9,308.3C85.9,308.3 95.6,296.9 71.7,291.7Z" style="fill:rgb(195,255,79);"/>
            <path d="M34.2,294.6C32.6,290.5 40.3,284 45.2,289.4C46.3,290.6 42.3,289.3 38.9,290.9C34.9,292.8 34.6,295.8 34.2,294.6Z" style="fill:rgb(39,95,15);"/>
            <path d="M91.1,288.4C91.9,284.6 100.6,283.7 101.6,289.9C101.8,291.3 99.5,288.4 96.4,287.9C92.6,287.4 90.9,289.4 91.1,288.4Z" style="fill:rgb(39,95,15);"/>
        </g>
        <path d="M74.7,265.1C74.7,265.1 69.8,260.7 72.9,259.3C76.1,258 80.3,261.7 74.7,265.1Z" style="fill:rgb(39,95,15);"/>
        <path d="M46.2,270.3C46.2,270.3 40.4,268.2 44.3,265C48.2,261.8 49,270.7 46.2,270.3Z" style="fill:rgb(39,95,15);"/>
    </g>
</svg>
