<?xml version="1.0" encoding="UTF-8" standalone="no"?>
<!DOCTYPE svg PUBLIC "-//W3C//DTD SVG 1.1//EN" "http://www.w3.org/Graphics/SVG/1.1/DTD/svg11.dtd">
<svg width="100%" height="100%" viewBox="0 0 1000 1000" version="1.1" xmlns="http://www.w3.org/2000/svg" xmlns:xlink="http://www.w3.org/1999/xlink" xml:space="preserve" xmlns:serif="http://www.serif.com/" style="fill-rule:evenodd;clip-rule:evenodd;stroke-linecap:round;stroke-linejoin:round;stroke-miterlimit:10;">
    <g transform="matrix(3.60063,0,0,3.60063,-1755.434444,-373.756529)">
        <g>
            <path d="M544.5,219.3L533.3,223.7C533.3,223.7 537,234.3 547.9,241L522.9,232.7L516.9,249.2L548.8,249.2L530.7,258.2L537.6,267.7L557.9,251.6L555.5,245.9L555.5,244.5C555.6,244.5 555.7,244.6 555.8,244.6L559,240.6C557.4,239.5 547.6,231.8 544.5,219.3ZM559,240.7C559.1,240.8 559.3,240.9 559.3,240.9L559.6,240L559,240.7Z" style="fill-rule:nonzero;"/>
            <path d="M649.2,177.7C650.4,168.4 646.3,156.1 632.5,148.5C621.5,142.5 606,145.7 608.3,158.9C608.5,160.2 609,161.3 609.5,162.3C598.7,159.3 578.9,161 578.9,169.6C578.9,176.5 588.3,180 596.4,181.8C571.3,194.5 554,221.6 554,251C554,291.5 587,310.7 627.7,310.7C668.4,310.7 701.4,291.5 701.4,251C701.3,217.8 679.4,187.7 649.2,177.7Z" style="fill:rgb(215,25,32);fill-rule:nonzero;"/>
            <path d="M627.6,310.5C648.3,310.5 667,305.5 680.4,295.3C672.1,283.9 658,271.8 634.8,270.2C605.4,268.2 586.9,281 576.9,297C590.2,306.1 608,310.5 627.6,310.5Z" style="fill:rgb(252,211,193);fill-rule:nonzero;stroke:black;stroke-width:2.84px;"/>
            <circle cx="672.6" cy="243.3" r="16.1" style="fill:white;stroke:black;stroke-width:2.84px;"/>
            <circle cx="642.5" cy="243.3" r="16.1" style="fill:white;stroke:black;stroke-width:2.84px;"/>
            <circle cx="647.3" cy="243.5" r="4.4"/>
            <circle cx="668.2" cy="243.5" r="4.4"/>
            <path d="M677.7,272.9C677.4,278.4 666.1,292.4 656.5,292.2C646.8,292 632.5,275.6 635.8,267.4C639.1,259.1 677.7,272.9 677.7,272.9Z" style="fill:rgb(229,168,18);fill-rule:nonzero;stroke:black;stroke-width:2.84px;"/>
            <path d="M650.7,176.7C651.5,167.5 647.6,155.1 633.2,147.2C625.9,143.2 616.8,143.1 611.4,146.9C607.6,149.6 606,153.9 606.9,159.1C607,159.5 607.1,159.9 607.2,160.3C598.4,158.6 586.2,159.5 580.7,163.7C578.6,165.3 577.4,167.4 577.4,169.6C577.4,176.4 584.9,180.2 592.5,182.3C569,195.7 552.5,221.7 552.5,251C552.5,288.7 581.3,312.1 627.6,312.1C673.9,312.1 702.7,288.7 702.7,251C702.7,216.9 680.5,187.1 650.7,176.7ZM627.6,309.1C592.7,309.1 555.3,293.8 555.3,250.8C555.3,221.5 572.4,195.5 596.5,183.1C602.2,184.3 607.2,184.6 607.7,184.7L607.8,184.7C608.5,184.7 609.2,184.1 609.2,183.4C609.2,182.6 608.6,181.9 607.9,181.9C600.2,181.4 580.2,178.3 580.2,169.5C580.2,168.1 580.9,166.9 582.3,165.8C587.6,161.8 600.5,161.3 608.5,163.4C611.2,167.4 616,168.7 618.8,168.8C619.5,168.9 620.2,168.2 620.3,167.4C620.3,166.6 619.7,166 618.9,165.9C618.8,165.9 613.6,165.6 610.9,161.9C610.8,161.5 610.7,161.2 610.4,161C610,160.3 609.7,159.4 609.5,158.4C608.8,154.3 610,151.1 612.8,149C617.3,145.8 625.2,146 631.6,149.5C648.7,158.9 649.6,174.8 646.2,182.6C645.9,183.3 646.2,184.2 646.9,184.5C647.1,184.6 647.3,184.6 647.5,184.6C648,184.6 648.6,184.3 648.8,183.8C649.4,182.5 649.8,181.1 650.1,179.5C678.6,189.7 699.7,218.2 699.7,250.8C699.9,293.8 662.6,309.1 627.6,309.1Z" style="fill-rule:nonzero;"/>
            <path d="M658.7,249.1C665,249.1 686.7,264.1 688.8,273.8C689.4,276.8 660,277.6 651.7,276.8C638.5,275.5 635.7,267.4 635.7,267.4C635.7,267.4 651,249.1 658.7,249.1Z" style="fill:rgb(253,185,19);fill-rule:nonzero;stroke:black;stroke-width:2.84px;"/>
            <path d="M657.3,228.9L694.5,216.4L699.3,228.1L657.3,237.5L614,226.1L619.4,214.6L657.3,228.9Z" style="fill-rule:nonzero;"/>
        </g>
    </g>
</svg>
