<?xml version="1.0" encoding="UTF-8" standalone="no"?>
<!DOCTYPE svg PUBLIC "-//W3C//DTD SVG 1.1//EN" "http://www.w3.org/Graphics/SVG/1.1/DTD/svg11.dtd">
<svg width="100%" height="100%" viewBox="0 0 1000 1000" version="1.1" xmlns="http://www.w3.org/2000/svg" xmlns:xlink="http://www.w3.org/1999/xlink" xml:space="preserve" xmlns:serif="http://www.serif.com/" style="fill-rule:evenodd;clip-rule:evenodd;stroke-linecap:round;stroke-linejoin:round;stroke-miterlimit:10;">
    <g transform="matrix(1.685416,0,0,1.685416,-706.147035,-379.060074)">
        <g>
            <path d="M555.4,528.1L544.2,532.5C544.2,532.5 547.9,543.1 558.8,549.8L533.8,541.5L527.8,558L559.7,558L541.6,567L548.5,576.5L568.8,560.4L569.9,549.4C568.2,548.2 558.4,540.6 555.4,528.1Z" style="fill-rule:nonzero;"/>
            <path d="M716.9,373C711.4,373 705.9,373.3 700.5,374C699.3,356.3 680.8,334.4 663.7,334.4C646.1,334.4 649.8,355 672.3,364.9C645.7,357.8 627.8,365.6 631.5,375.7C634,382.4 650.2,384.1 660.8,384.5C602.1,409.2 560.4,470.2 560.4,532.1C560.4,619.9 630.4,668.4 716.8,668.4C803.1,668.4 873.1,619.9 873.1,532.1C873.3,451.8 803.3,373 716.9,373Z" style="fill:rgb(196,22,28);fill-rule:nonzero;"/>
            <path d="M716.9,668.4C760.4,668.4 799.8,656.1 828.1,632.6C824.3,624.8 818.6,616.4 810.6,611C813.6,621.6 810.6,622.4 810.6,622.4C810.6,622.4 793.9,594.2 750.8,591.2C691,587 672.4,613.4 672.4,613.4L668.2,602C654.6,611.1 643.2,628.5 643.2,628.5L643.2,617.1C643.2,617.1 630.9,625.1 617.6,641.4C644.7,659.1 679.2,668.4 716.9,668.4Z" style="fill:rgb(252,211,193);fill-rule:nonzero;stroke:black;stroke-width:2.84px;"/>
            <g>
                <ellipse cx="677.1" cy="563.7" rx="15.1" ry="15.8" style="fill:rgb(177,17,22);"/>
                <ellipse cx="599.8" cy="487.8" rx="9.4" ry="10.7" style="fill:rgb(177,17,22);"/>
                <path d="M610.9,547.9C610.9,520.7 593.9,498.6 572.9,498.6C569.9,498.6 567.1,499.1 564.3,499.9C561.9,510.5 560.6,521.2 560.6,532C560.6,556.9 566.2,578.6 576.2,596.9C595.6,594.7 610.9,573.6 610.9,547.9Z" style="fill:rgb(177,17,22);fill-rule:nonzero;"/>
                <ellipse cx="628.7" cy="513.5" rx="17.9" ry="19.8" style="fill:rgb(177,17,22);"/>
            </g>
            <path d="M700.5,372.5C705.9,371.9 711.4,371.6 716.9,371.6C758.3,371.6 797.9,389.3 828.5,421.5C857.9,452.3 874.7,492.7 874.7,532.1C874.7,614.5 811.3,669.9 716.9,669.9C622.5,669.9 559.1,614.5 559.1,532.1C559.1,492.7 575.9,452.3 605.3,421.5C620.9,405.1 638.8,392.5 658.1,384L664.2,384.6C605.9,407.5 562,466.6 562,532C562,612.7 624.3,666.9 716.9,666.9C809.6,666.9 871.8,612.7 871.8,532C871.8,448 799.4,374.4 716.9,374.4C711.4,374.4 706,374.7 700.6,375.4L700.5,372.5Z" style="fill-rule:nonzero;"/>
            <path d="M665.5,386C655.4,386 633.5,385 630.2,376.2C629,373 629.7,369.8 632.1,367.2C636.6,362.3 647.7,359.1 663.5,361.6C654.2,355.1 650.3,346.7 651.5,341C652.6,336 657,333.1 663.8,333.1C682.8,333.1 702.1,358 702.1,375.8C702.1,376.6 701.5,377.2 700.7,377.2C699.9,377.2 699.3,376.6 699.3,375.8C699.3,359.3 681,335.9 663.8,335.9C658.4,335.9 655.1,337.9 654.3,341.6C653,347.9 659.6,357.8 673,363.7C673.7,364 674,364.8 673.8,365.5C673.6,366.2 672.8,366.6 672.1,366.4C652.7,361.2 638.9,364.2 634.3,369.2C632.6,371 632.2,373.1 633,375.3C635.8,382.8 660.8,383.5 670.2,383.2C671,383.1 671.6,383.8 671.7,384.6C671.7,385.4 671.1,386 670.3,386.1C669.6,385.9 667.9,386 665.5,386Z" style="fill-rule:nonzero;"/>
            <path d="M731.5,578.1C732.5,589.6 750.5,612.3 761.3,612.3C772.1,612.3 797.2,586.6 797.5,582.8C797.8,579.1 731.5,578.1 731.5,578.1Z" style="fill:rgb(229,168,18);fill-rule:nonzero;stroke:black;stroke-width:2.84px;"/>
            <circle cx="783" cy="547.5" r="21" style="fill:white;stroke:black;stroke-width:2.84px;"/>
            <circle cx="776.4" cy="542.7" r="6"/>
            <circle cx="741" cy="547.5" r="21" style="fill:white;stroke:black;stroke-width:2.84px;"/>
            <circle cx="747.7" cy="542.7" r="6"/>
            <path d="M719.1,473.5C730,478.7 747.6,485 768.3,485C781.2,485 795.2,482.6 809.6,475.9C810.7,475.4 811.2,474.1 810.7,473C810.2,471.9 808.9,471.4 807.8,471.9C771.9,488.5 738.1,477.6 721.1,469.5C720,469 718.7,469.4 718.2,470.6C717.5,471.6 718,472.9 719.1,473.5ZM823.9,488.5C823.4,487.4 822.1,486.9 821,487.4C784.3,503.5 748,503.5 710,487.4C708.9,486.9 707.6,487.4 707.1,488.6C706.6,489.7 707.1,491 708.3,491.5C727.9,499.8 747,504 766,504C785,504 803.8,499.8 822.8,491.5C823.9,490.9 824.4,489.6 823.9,488.5Z" style="fill-rule:nonzero;"/>
            <path d="M722.9,585.9C722.9,574.4 749.4,551.7 764.6,551.7C779.8,551.7 821.8,578.4 821.8,594.7C821.8,599.6 766.5,581.5 722.9,585.9Z" style="fill:rgb(253,185,19);fill-rule:nonzero;stroke:black;stroke-width:2.84px;"/>
            <path d="M762.8,520.7L823.3,503.5L826.1,540.8L762.8,541.5L692.3,533.3L694.3,498.4L762.8,520.7Z" style="fill-rule:nonzero;"/>
        </g>
    </g>
</svg>
